<svg version="1.0" xmlns="http://www.w3.org/2000/svg"
 width="{{ .width }}" height="{{ .height }}" viewBox="0 0 244.000000 158.000000"
 preserveAspectRatio="xMidYMid meet">

<g transform="translate(0.000000,158.000000) scale(0.100000,-0.100000)"
fill="#000000" stroke="none">
<path d="M340 1564 c-149 -40 -260 -160 -290 -312 -18 -90 -8 -325 18 -424 49
-184 147 -353 274 -474 180 -171 392 -261 639 -272 413 -18 762 184 941 543
49 98 62 142 122 412 61 274 57 276 77 -52 12 -203 19 -229 70 -267 39 -29
111 -26 154 6 55 42 57 59 37 371 -16 231 -22 288 -39 325 -37 85 -120 146
-212 157 -100 12 -217 -50 -261 -138 -11 -21 -45 -152 -75 -291 -65 -296 -74
-327 -128 -432 -50 -97 -161 -213 -257 -269 -187 -108 -451 -129 -650 -50
-159 63 -299 192 -376 347 -56 114 -74 198 -74 349 0 133 10 165 63 197 30 19
53 20 435 20 445 0 455 1 492 62 41 68 14 165 -55 194 -51 21 -825 19 -905 -2z"/>
<path d="M1545 1573 c-40 -10 -84 -53 -95 -93 -9 -34 -8 -47 9 -84 56 -127
241 -89 241 49 0 54 -25 94 -73 116 -43 19 -48 20 -82 12z"/>
</g>
</svg>
