<?xml version="1.0" encoding="UTF-8" standalone="no"?>
<svg
   width="27.646599"
   height="40"
   viewBox="0 0 27.646599 39.999999"
   fill="none"
   version="1.1"
   id="svg30"
   sodipodi:docname="buymeacoffee.svg"
   inkscape:version="1.2.2 (732a01da63, 2022-12-09)"
   xmlns:inkscape="http://www.inkscape.org/namespaces/inkscape"
   xmlns:sodipodi="http://sodipodi.sourceforge.net/DTD/sodipodi-0.dtd"
   xmlns="http://www.w3.org/2000/svg"
   xmlns:svg="http://www.w3.org/2000/svg">
  <defs
     id="defs34" />
  <sodipodi:namedview
     id="namedview32"
     pagecolor="#ffffff"
     bordercolor="#000000"
     borderopacity="0.25"
     inkscape:showpageshadow="2"
     inkscape:pageopacity="0.0"
     inkscape:pagecheckerboard="0"
     inkscape:deskcolor="#d1d1d1"
     showgrid="false"
     showguides="false"
     inkscape:zoom="10.333073"
     inkscape:cx="8.5647322"
     inkscape:cy="28.694272"
     inkscape:window-width="1920"
     inkscape:window-height="1013"
     inkscape:window-x="1911"
     inkscape:window-y="-9"
     inkscape:window-maximized="1"
     inkscape:current-layer="svg30" />
  <path
     d="m 24.303633,9.5387224 -0.02643,-0.015534 -0.06113,-0.01864 c 0.0246,0.02075 0.05537,0.03279 0.08756,0.034173 z"
     fill="#0d0c22"
     id="path2"
     style="stroke-width:0.0301093" />
  <path
     d="m 24.688641,12.289901 -0.02951,0.0083 z"
     fill="#0d0c22"
     id="path4"
     style="stroke-width:0.0301093" />
  <path
     d="m 24.314924,9.5344767 c -0.0037,-4.81e-4 -0.0075,-0.00136 -0.01102,-0.00261 -2.12e-4,0.00242 -2.12e-4,0.00494 0,0.00736 0.004,-5.43e-4 0.0079,-0.00223 0.01102,-0.00474 z"
     fill="#0d0c22"
     id="path6"
     style="stroke-width:0.0301093" />
  <path
     d="m 24.303754,9.5390535 h 0.0039 V 9.53663 Z"
     fill="#0d0c22"
     id="path8"
     style="stroke-width:0.0301093" />
  <path
     d="m 24.665005,12.284932 0.04456,-0.02539 0.01659,-0.0093 0.01503,-0.01605 c -0.02826,0.01217 -0.05405,0.02939 -0.07617,0.05076 z"
     fill="#0d0c22"
     id="path10"
     style="stroke-width:0.0301093" />
  <path
     d="m 24.380713,9.5988501 -0.04354,-0.041461 -0.02951,-0.016056 c 0.01587,0.027999 0.04209,0.048651 0.07305,0.057517 z"
     fill="#0d0c22"
     id="path12"
     style="stroke-width:0.0301093" />
  <path
     d="m 13.431461,36.295725 c -0.03478,0.01505 -0.06525,0.03855 -0.08861,0.06835 l 0.02746,-0.01746 c 0.01867,-0.01717 0.04507,-0.03734 0.06115,-0.05088 z"
     fill="#0d0c22"
     id="path14"
     style="stroke-width:0.0301093" />
  <path
     d="m 19.789585,35.044683 c 0,-0.03914 -0.01915,-0.03192 -0.01451,0.107792 0,-0.01115 0.0046,-0.02258 0.0068,-0.03343 0.0027,-0.02499 0.0046,-0.04937 0.0079,-0.07437 z"
     fill="#0d0c22"
     id="path16"
     style="stroke-width:0.0301093" />
  <path
     d="m 19.130101,36.295725 c -0.03478,0.01505 -0.06521,0.03855 -0.08858,0.06835 l 0.02746,-0.01746 c 0.01864,-0.01717 0.04507,-0.03734 0.06112,-0.05088 z"
     fill="#0d0c22"
     id="path18"
     style="stroke-width:0.0301093" />
  <path
     d="m 8.953755,36.593205 c -0.026402,-0.02288 -0.058717,-0.03794 -0.093248,-0.04366 0.027969,0.01355 0.055939,0.0271 0.074578,0.03734 z"
     fill="#0d0c22"
     id="path20"
     style="stroke-width:0.0301093" />
  <path
     d="m 7.9462066,35.628201 c -0.00413,-0.04065 -0.016651,-0.08008 -0.036794,-0.11592 0.014272,0.03704 0.026195,0.07527 0.03574,0.113813 z"
     fill="#0d0c22"
     id="path22"
     style="stroke-width:0.0301093" />
  <path
     d="m 14.714239,18.370326 c -1.383252,0.59216 -2.953032,1.263566 -4.987518,1.263566 -0.8510696,-0.0017 -1.698045,-0.118449 -2.5178313,-0.347099 l 1.4070982,14.44663 c 0.049803,0.603691 0.3248798,1.166736 0.770588,1.577125 0.4457082,0.41039 1.0294681,0.638017 1.6353271,0.638017 0,0 1.995103,0.103576 2.660851,0.103576 0.716481,0 2.864931,-0.103576 2.864931,-0.103576 0.605799,0 1.189409,-0.227928 1.635026,-0.638317 0.445616,-0.41039 0.720606,-0.973134 0.770407,-1.576825 l 1.507061,-15.96408 c -0.673485,-0.230004 -1.353202,-0.382839 -2.119424,-0.382839 -1.325231,-5.12e-4 -2.392998,0.455916 -3.626516,0.983822 z"
     fill="#ffdd00"
     id="path24"
     style="stroke-width:0.0301093" />
  <path
     d="m 2.8531409,12.206829 0.023829,0.02227 0.015545,0.0093 c -0.011969,-0.01189 -0.025167,-0.02249 -0.039373,-0.03161 z"
     fill="#0d0c22"
     id="path26"
     style="stroke-width:0.0301093" />
  <path
     d="M 26.967043,10.873498 26.755163,9.8047077 C 26.565023,8.8457561 26.133466,7.9396466 25.149133,7.5930584 24.833617,7.4821657 24.475618,7.4345328 24.23369,7.2050094 23.991762,6.9755164 23.920252,6.6190823 23.864308,6.2885422 23.760672,5.6818696 23.663298,5.0746852 23.557073,4.4690664 23.46539,3.9483862 23.392856,3.3634916 23.154029,2.8858284 22.843181,2.2444519 22.19818,1.8693651 21.556792,1.6212072 21.228148,1.4985238 20.89276,1.39474 20.552253,1.3103646 18.949836,0.88761479 17.26507,0.73219269 15.616555,0.64360203 13.63789,0.53441846 11.653928,0.56731398 9.6799306,0.74203573 8.2106867,0.87569881 6.6631885,1.0373394 5.2669896,1.5455696 4.7566969,1.7315578 4.2308378,1.9548455 3.8428189,2.3491029 3.3666945,2.8335015 3.2112732,3.5826363 3.5588882,4.1867013 3.8060255,4.6156687 4.2246351,4.9187491 4.6686272,5.119247 5.2469367,5.3775849 5.8508995,5.5741687 6.470489,5.7057162 8.1956623,6.0870206 9.9825,6.2367241 11.744978,6.3004655 c 1.953493,0.078827 3.910087,0.014934 5.854245,-0.1911941 0.480784,-0.052842 0.960698,-0.116222 1.439736,-0.1901102 0.564188,-0.086534 0.926314,-0.8242726 0.760019,-1.3382085 -0.198963,-0.6144107 -0.733612,-0.8527258 -1.338177,-0.7599892 -0.08913,0.01397 -0.177706,0.026917 -0.266829,0.039865 l -0.06422,0.00933 c -0.204833,0.025924 -0.409636,0.050071 -0.61444,0.072533 -0.423097,0.045586 -0.847216,0.082891 -1.272389,0.1119164 -0.952238,0.066301 -1.907034,0.096862 -2.861318,0.098427 -0.937725,0 -1.875962,-0.026435 -2.811608,-0.08807 C 10.143102,4.0369978 9.7172365,4.0014089 9.2924242,3.9582318 9.0991829,3.9380289 8.9064526,3.9168012 8.7137534,3.8929545 L 8.5303276,3.8696498 8.4904638,3.8639591 8.3003234,3.8364996 C 7.9117615,3.7779374 7.5232009,3.7106129 7.1387952,3.6292575 c -0.038781,-0.00861 -0.073497,-0.030169 -0.098367,-0.061173 -0.024871,-0.030989 -0.03842,-0.069535 -0.03842,-0.1092667 0,-0.039735 0.01355,-0.078282 0.038419,-0.1092698 0.024871,-0.030992 0.059587,-0.052571 0.098367,-0.06118 h 0.00726 C 7.4791841,3.2173948 7.8148727,3.1567793 8.1516153,3.1039344 8.2638934,3.08632 8.3764721,3.0690533 8.4894119,3.0521275 h 0.00309 C 8.703364,3.0381392 8.9152732,3.0003194 9.1250745,2.9754518 10.950603,2.7855703 12.78697,2.7208324 14.621349,2.7816922 c 0.890544,0.025906 1.780605,0.07823 2.667024,0.1683742 0.190652,0.019688 0.38028,0.040413 0.569878,0.063723 0.07253,0.00881 0.145579,0.019167 0.218654,0.027978 l 0.147114,0.02124 c 0.428968,0.063899 0.855676,0.1414357 1.280158,0.2326186 0.628953,0.1367716 1.436635,0.1813244 1.716381,0.8703609 0.08913,0.2186238 0.12953,0.4616059 0.178728,0.691099 l 0.0627,0.2927229 c 0.0017,0.00523 0.0029,0.010629 0.0036,0.016048 0.148168,0.6907679 0.296517,1.3815358 0.445017,2.0723037 0.0109,0.051036 0.01114,0.1037566 7.52e-4,0.1548822 -0.01039,0.051156 -0.03119,0.099571 -0.06116,0.1423268 -0.02994,0.042725 -0.06838,0.078826 -0.11288,0.106045 -0.04453,0.02722 -0.09415,0.044952 -0.14585,0.05215 h -0.0041 l -0.09065,0.012435 -0.08961,0.011894 c -0.283931,0.036975 -0.568164,0.07151 -0.852756,0.1036362 -0.560575,0.063893 -1.121994,0.1191426 -1.684256,0.1657819 -1.117327,0.092887 -2.23688,0.1538586 -3.358693,0.182884 -0.571595,0.015175 -1.14304,0.022281 -1.714304,0.021227 C 11.523253,8.1896442 9.2513855,8.0574645 6.9927048,7.7956037 6.748157,7.7666084 6.5036392,7.7355055 6.2590915,7.7039209 6.4487199,7.7282793 6.121281,7.685253 6.0549803,7.6759493 5.8995561,7.6541803 5.7441318,7.6315682 5.5887077,7.608083 5.0670034,7.5298287 4.5484307,7.4334789 4.0277504,7.3490224 3.3982972,7.2454162 2.7962945,7.2972343 2.2269305,7.608083 1.7595706,7.8638314 1.3813074,8.2560052 1.1426038,8.7323044 0.89703515,9.2400081 0.82398701,9.7927852 0.71415598,10.338335 c -0.10983181,0.54552 -0.28079673,1.132502 -0.21603756,1.692534 0.13936181,1.20868 0.98434118,2.190935 2.19974268,2.410614 1.1433922,0.207211 2.292996,0.37507 3.4457009,0.51806 4.528139,0.554583 9.102738,0.620914 13.645059,0.197908 0.369893,-0.03454 0.739273,-0.07217 1.108144,-0.112939 0.115228,-0.01264 0.231811,6.02e-4 0.341228,0.03883 0.109418,0.03824 0.208899,0.100474 0.291157,0.182131 0.08225,0.08167 0.145187,0.180687 0.18421,0.289803 0.03905,0.109146 0.05317,0.225639 0.04134,0.340928 l -0.115017,1.118019 c -0.231751,2.259131 -0.463503,4.518113 -0.695254,6.776915 -0.241749,2.3721 -0.485091,4.744021 -0.72997,7.115612 -0.06907,0.668125 -0.138142,1.33595 -0.207213,2.003474 -0.06632,0.657587 -0.07563,1.335648 -0.200498,1.985408 -0.196884,1.021609 -0.888496,1.649087 -1.8977,1.878519 -0.924597,0.210466 -1.869126,0.320966 -2.817298,0.329397 -1.051175,0.0057 -2.10181,-0.04095 -3.152987,-0.03523 -1.122172,0.0063 -2.4966021,-0.09725 -3.3628169,-0.932482 C 7.8148697,35.402382 7.7096978,34.253711 7.6060917,33.260405 7.4679503,31.945531 7.3310131,30.630929 7.1952503,29.316417 L 6.4336953,22.006899 5.9410167,17.277418 c -0.0083,-0.07822 -0.01659,-0.155425 -0.024359,-0.23419 -0.059074,-0.564159 -0.4585047,-1.116423 -1.08797,-1.08794 -0.538776,0.02381 -1.1511393,0.481809 -1.0879398,1.08794 l 0.365226,3.506349 0.7553523,7.253034 c 0.2151913,2.060199 0.4298405,4.12064 0.6439779,6.181622 0.041461,0.394733 0.080301,0.790671 0.1238096,1.185403 0.2367796,2.157334 1.8842408,3.319854 3.9244182,3.647141 1.1915761,0.191798 2.4121471,0.23124 3.6213381,0.250811 1.550086,0.02499 3.115711,0.0846 4.640386,-0.196313 2.259344,-0.414604 3.954468,-1.923081 4.196396,-4.263177 0.0691,-0.675652 0.138172,-1.351305 0.207241,-2.02726 0.229676,-2.235345 0.459018,-4.470842 0.687999,-6.706518 l 0.749151,-7.304821 0.343486,-3.347795 c 0.0171,-0.166022 0.0872,-0.322108 0.199926,-0.445165 0.112699,-0.123057 0.262042,-0.206581 0.425896,-0.238195 0.646025,-0.125887 1.263598,-0.340898 1.723127,-0.832553 0.731505,-0.782783 0.877084,-1.803398 0.618565,-2.832293 z M 2.6647049,11.5957 c 0.00984,-0.0046 -0.00829,0.07976 -0.01606,0.119142 -0.00155,-0.05959 0.00155,-0.112427 0.01606,-0.119142 z m 0.062688,0.484911 c 0.00518,-0.0036 0.020722,0.0171 0.036781,0.04198 -0.02435,-0.02283 -0.039888,-0.03989 -0.037299,-0.04198 z m 0.061651,0.08132 c 0.022278,0.03781 0.034193,0.06167 0,0 z m 0.1238187,0.100506 h 0.0031 c 0,0.0036 0.0057,0.0073 0.00777,0.01089 -0.00344,-0.004 -0.00725,-0.0077 -0.011396,-0.01089 z M 24.595302,12.112195 C 24.36322,12.332896 24.0135,12.435479 23.667935,12.486785 19.792746,13.061843 15.861102,13.353 11.943398,13.224524 9.1395887,13.128682 6.3653171,12.817295 3.5894792,12.425122 3.3174777,12.386797 3.0226925,12.337052 2.8356684,12.136554 2.4833775,11.75835 2.6564156,10.996796 2.7481133,10.539857 2.8320421,10.121247 2.992646,9.5632911 3.4905156,9.5037054 4.2676309,9.4125384 5.1700973,9.7404552 5.9389387,9.8570387 6.8645592,9.9982808 7.7936423,10.111401 8.7261578,10.19637 12.706006,10.559037 16.7527,10.502552 20.714934,9.9720553 c 0.722172,-0.097072 1.441785,-0.2098322 2.158808,-0.3383082 0.638798,-0.1145055 1.347,-0.3294866 1.732971,0.3320755 0.264722,0.4507364 0.299949,1.0537664 0.259031,1.5630354 -0.01262,0.221875 -0.109567,0.430563 -0.270954,0.583337 z"
     fill="#0d0c22"
     id="path28"
     style="stroke-width:0.0301093" />
</svg>
